HIERARCHY
ROOT joint_Root
{
	OFFSET 0.0 0.0 0.0
	CHANNELS 6 Xposition Yposition Zposition Zrotation Xrotation Yrotation 
	JOINT Hips
	{
		OFFSET 4.5925 91.4895 -427.239
		CHANNELS 6 Xposition Yposition Zposition Zrotation Xrotation Yrotation 
		JOINT Spine
		{
			OFFSET 15.7357 0.0 0.0
			CHANNELS 6 Xposition Yposition Zposition Zrotation Xrotation Yrotation 
			JOINT Chest
			{
				OFFSET 8.98455 -0.406207 0.0
				CHANNELS 6 Xposition Yposition Zposition Zrotation Xrotation Yrotation 
				JOINT Neck
				{
					OFFSET 16.3773 0.0 0.0
					CHANNELS 6 Xposition Yposition Zposition Zrotation Xrotation Yrotation 
					JOINT Head
					{
						OFFSET 6.45672 0.0 0.0
						CHANNELS 6 Xposition Yposition Zposition Zrotation Xrotation Yrotation 
						End Site
						{
							OFFSET 0.0 0.0 0.0
						}
					}
				}
				JOINT Shoulder_L
				{
					OFFSET 12.9942 -0.242716 4.98039
					CHANNELS 6 Xposition Yposition Zposition Zrotation Xrotation Yrotation 
					JOINT UpperArm_L
					{
						OFFSET 5.34809 0.0 0.0
						CHANNELS 6 Xposition Yposition Zposition Zrotation Xrotation Yrotation 
						JOINT LowerArm_L
						{
							OFFSET 24.3286 1.87007e-05 0.0
							CHANNELS 6 Xposition Yposition Zposition Zrotation Xrotation Yrotation 
							JOINT Hand_L
							{
								OFFSET 22.2916 0.0 0.0
								CHANNELS 6 Xposition Yposition Zposition Zrotation Xrotation Yrotation 
								End Site
								{
									OFFSET 0.0 0.0 0.0
								}
							}
						}
					}
				}
				JOINT Shoulder_R
				{
					OFFSET 12.9945 -0.242716 -4.98039
					CHANNELS 6 Xposition Yposition Zposition Zrotation Xrotation Yrotation 
					JOINT UpperArm_R
					{
						OFFSET -5.34813 0.0 0.0
						CHANNELS 6 Xposition Yposition Zposition Zrotation Xrotation Yrotation 
						JOINT LowerArm_R
						{
							OFFSET -24.3289 0.000322201 0.0
							CHANNELS 6 Xposition Yposition Zposition Zrotation Xrotation Yrotation 
							JOINT Hand_R
							{
								OFFSET -22.2915 -0.000108084 0.0
								CHANNELS 6 Xposition Yposition Zposition Zrotation Xrotation Yrotation 
								End Site
								{
									OFFSET 0.0 0.0 0.0
								}
							}
						}
					}
				}
			}
		}
		JOINT UpperLeg_L
		{
			OFFSET -2.19248 -6.46944 0.0
			CHANNELS 6 Xposition Yposition Zposition Zrotation Xrotation Yrotation 
			JOINT LowerLeg_L
			{
				OFFSET 39.0811 0.0 -1.23785e-05
				CHANNELS 6 Xposition Yposition Zposition Zrotation Xrotation Yrotation 
				JOINT Foot_L
				{
					OFFSET 40.9854 0.0 -1.26872e-05
					CHANNELS 6 Xposition Yposition Zposition Zrotation Xrotation Yrotation 
					JOINT Toes_L
					{
						OFFSET 11.7543 0.0 0.0
						CHANNELS 6 Xposition Yposition Zposition Zrotation Xrotation Yrotation 
						End Site
						{
							OFFSET 0.0 0.0 0.0
						}
					}
				}
			}
		}
		JOINT UpperLeg_R
		{
			OFFSET -2.19251 6.46944 0.0
			CHANNELS 6 Xposition Yposition Zposition Zrotation Xrotation Yrotation 
			JOINT LowerLeg_R
			{
				OFFSET -39.0811 -0.00228153 -0.0401928
				CHANNELS 6 Xposition Yposition Zposition Zrotation Xrotation Yrotation 
				JOINT Foot_R
				{
					OFFSET -40.9854 0.0 0.0
					CHANNELS 6 Xposition Yposition Zposition Zrotation Xrotation Yrotation 
					JOINT Toes_R
					{
						OFFSET -11.7543 0.0 0.0
						CHANNELS 6 Xposition Yposition Zposition Zrotation Xrotation Yrotation 
						End Site
						{
							OFFSET 0.0 0.0 0.0
						}
					}
				}
			}
		}
	}
}
MOTION
Frames:	7
Frame Time:	0.0333333
0.000000 0.000000 0.000000 0.000000 0.000000 -0.000000 104.085000 82.274300 177.420000 -79.099000 44.664600 173.087000 15.735700 0.000005 -0.000001 101.564000 82.823800 -102.193000 8.984550 -0.406207 -0.000000 6.317330 2.876690 -1.415570 16.377300 -0.000001 -0.000001 -0.700858 7.011740 -0.301294 6.456720 -0.000001 -0.000000 -0.230123 7.920570 2.051220 12.994200 -0.242716 4.980390 -92.028000 5.065160 -68.148100 5.348090 -0.000007 -0.000001 -69.180300 22.250300 -6.604910 24.328600 0.000019 0.000005 2.891480 0.129286 -87.408000 22.291600 -0.000001 0.000005 9.996490 5.423060 -3.711450 12.994500 -0.242716 -4.980390 88.096200 10.808200 -79.949800 -5.348130 -0.000001 -0.000004 -66.970100 38.220500 6.995750 -24.328900 0.000322 -0.000009 -10.504800 -3.706230 -70.774900 -22.291500 -0.000108 -0.000004 31.086000 5.655250 -15.515000 -2.192480 -6.469440 -0.000000 167.939000 -17.768200 -24.180600 39.081100 -0.000007 -0.000012 -0.744173 0.588602 51.660000 40.985400 -0.000006 -0.000013 15.143900 -14.475700 -81.844200 11.754300 -0.000000 0.000003 -0.000000 -0.000002 -16.577500 -2.192510 6.469440 -0.000001 171.236000 16.342800 166.153000 -39.081100 -0.002282 -0.040193 0.220752 -0.044341 78.493800 -40.985400 0.000008 0.000006 -1.670390 2.190840 -20.993000 -11.754300 -0.000006 -0.000006 -0.025189 -0.194499 -24.530800
0.000000 0.000000 0.000000 0.000000 0.000000 -0.000000 106.627000 83.626200 174.330000 -80.171900 36.192800 173.805000 15.735700 0.000005 -0.000001 89.328500 82.932800 -89.190700 8.984550 -0.406207 -0.000000 6.367640 -0.166829 0.284619 16.377300 -0.000001 -0.000001 -0.739232 5.441630 -1.830460 6.456720 -0.000001 -0.000000 0.003739 7.435830 1.707170 12.994200 -0.242716 4.980390 -91.340300 3.719470 -70.172600 5.348090 -0.000007 -0.000001 -66.046400 33.683800 -17.628600 24.328600 0.000019 0.000005 7.037980 -0.737010 -95.929600 22.291600 -0.000001 0.000005 10.320300 5.458400 -4.947790 12.994500 -0.242716 -4.980390 87.351500 11.291800 -76.703900 -5.348130 -0.000001 -0.000004 -63.616000 37.075300 18.756900 -24.328900 0.000322 -0.000009 -12.454600 -3.030850 -76.534400 -22.291500 -0.000108 -0.000004 31.091600 5.675160 -18.398000 -2.192480 -6.469440 -0.000000 170.009000 -14.820600 -17.272300 39.081100 -0.000007 -0.000012 -0.568656 0.539223 46.523300 40.985400 -0.000006 -0.000013 16.187500 -9.123800 -83.033100 11.754300 -0.000000 0.000003 -0.000002 -0.000023 -16.578400 -2.192510 6.469440 -0.000001 173.580000 16.226800 161.221000 -39.081100 -0.002282 -0.040193 0.095572 -0.014598 81.057100 -40.985400 0.000008 0.000006 3.488320 2.400210 -32.171400 -11.754300 -0.000006 -0.000006 -0.024194 -0.189501 -24.324200
0.000000 0.000000 0.000000 0.000000 0.000000 -0.000000 109.071000 85.711800 171.214000 -79.659800 27.219700 173.072000 15.735700 0.000005 -0.000001 72.406200 82.780300 -70.958200 8.984550 -0.406207 -0.000000 6.068660 -4.374210 3.126000 16.377300 -0.000001 -0.000001 -0.078563 4.002590 -1.678430 6.456720 -0.000001 -0.000000 -0.253752 9.008870 -1.260600 12.994200 -0.242716 4.980390 -90.457100 1.426550 -72.240600 5.348090 -0.000007 -0.000001 -60.905900 39.507600 -27.149000 24.328600 0.000019 0.000005 8.523860 -2.262320 -104.762000 22.291600 -0.000001 0.000005 7.674170 5.485640 -5.969460 12.994500 -0.242716 -4.980390 87.708300 7.743400 -73.453500 -5.348130 -0.000001 -0.000004 -63.565500 38.761800 26.436400 -24.328900 0.000322 -0.000009 -12.621300 -2.047650 -80.932600 -22.291500 -0.000108 -0.000004 26.777600 5.677720 -18.889300 -2.192480 -6.469440 -0.000000 173.327000 -8.439350 -9.940490 39.081100 -0.000007 -0.000012 -0.425348 0.542877 38.080000 40.985400 -0.000006 -0.000013 16.089300 -5.532150 -81.664900 11.754300 -0.000000 0.000003 -0.000001 -0.000012 -16.577900 -2.192510 6.469440 -0.000001 177.105000 16.171300 157.186000 -39.081100 -0.002282 -0.040193 0.043589 -0.008314 78.443400 -40.985400 0.000008 0.000006 7.436310 -3.131080 -41.390700 -11.754300 -0.000006 -0.000006 -0.023506 -0.185985 -24.179000
0.000000 0.000000 0.000000 0.000000 0.000000 -0.000000 111.583000 88.052700 168.123000 -77.740200 19.493500 170.954000 15.735700 0.000005 -0.000001 56.981100 82.343100 -53.968600 8.984550 -0.406207 -0.000000 5.348210 -8.390340 6.419400 16.377300 -0.000001 -0.000001 -0.235675 3.395050 -1.288130 6.456720 -0.000001 -0.000000 0.863307 10.181100 -1.820170 12.994200 -0.242716 4.980390 -89.646200 -1.180440 -73.309900 5.348090 -0.000007 -0.000001 -57.301500 41.217200 -33.435200 24.328600 0.000019 0.000005 5.448200 -2.251040 -112.402000 22.291600 -0.000001 0.000005 5.307640 5.486290 -5.989270 12.994500 -0.242716 -4.980390 88.599500 4.363560 -72.183800 -5.348130 -0.000001 -0.000004 -64.670200 40.299600 32.860400 -24.328900 0.000322 -0.000009 -12.637000 -0.971455 -85.672200 -22.291500 -0.000108 -0.000004 24.253700 5.678390 -19.057300 -2.192480 -6.469440 -0.000000 177.313000 -2.641460 -2.223300 39.081100 -0.000007 -0.000012 -0.079409 0.168202 25.272500 40.985400 -0.000006 -0.000013 19.591800 -3.696050 -77.984000 11.754300 -0.000000 0.000003 -0.002079 -0.029707 -17.784700 -2.192510 6.469440 -0.000001 -178.474000 14.881200 153.333000 -39.081100 -0.002282 -0.040193 0.026960 -0.007868 71.758100 -40.985400 0.000008 0.000006 9.244910 -8.977180 -48.620700 -11.754300 -0.000006 -0.000006 -0.021908 -0.177637 -23.834400
0.000000 0.000000 0.000000 0.000000 0.000000 -0.000000 113.959000 90.150600 165.189000 -76.576900 14.147100 168.804000 15.735700 0.000005 -0.000001 47.332600 82.161200 -43.122800 8.984550 -0.406207 -0.000000 4.233220 -10.739600 8.828020 16.377300 -0.000001 -0.000001 -0.435771 2.849140 -0.604614 6.456720 -0.000001 -0.000000 1.766740 10.565400 -1.807290 12.994200 -0.242716 4.980390 -89.024500 -3.401020 -73.983900 5.348090 -0.000007 -0.000001 -55.642000 41.068700 -37.217700 24.328600 0.000019 0.000005 1.478680 -0.779266 -117.822000 22.291600 -0.000001 0.000005 5.230690 5.467730 -5.287530 12.994500 -0.242716 -4.980390 89.653600 1.021550 -71.255200 -5.348130 -0.000001 -0.000004 -66.749400 41.563700 37.675700 -24.328900 0.000322 -0.000009 -13.066500 -0.220796 -89.048400 -22.291500 -0.000108 -0.000004 22.889000 5.677220 -18.754000 -2.192480 -6.469440 -0.000000 -178.714000 -2.465200 1.358450 39.081100 -0.000007 -0.000012 -0.019418 0.063961 16.887300 40.985400 -0.000006 -0.000013 19.979600 2.593350 -70.381600 11.754300 -0.000000 0.000003 -1.088190 -1.236960 -21.938600 -2.192510 6.469440 -0.000001 -175.813000 12.331000 149.693000 -39.081100 -0.002282 -0.040193 0.020556 -0.008845 63.020800 -40.985400 0.000008 0.000006 9.428190 -12.049500 -54.412300 -11.754300 -0.000006 -0.000006 -0.022127 -0.178797 -23.882300
0.000000 0.000000 0.000000 0.000000 0.000000 -0.000000 116.329000 91.659200 162.270000 -76.407500 10.066000 167.553000 15.735700 0.000005 -0.000001 41.780300 82.003900 -36.935600 8.984550 -0.406207 -0.000000 3.488350 -12.093300 10.077700 16.377300 -0.000001 -0.000001 -0.612861 2.020690 0.695537 6.456720 -0.000001 -0.000000 1.674730 10.325200 -1.584320 12.994200 -0.242716 4.980390 -88.503200 -5.330740 -74.290300 5.348090 -0.000007 -0.000001 -54.745600 39.817500 -40.088500 24.328600 0.000019 0.000005 -2.114330 1.260860 -120.788000 22.291600 -0.000001 0.000005 6.060560 5.452340 -4.725060 12.994500 -0.242716 -4.980390 90.804300 -2.279650 -70.561500 -5.348130 -0.000001 -0.000004 -69.792400 41.555200 40.100800 -24.328900 0.000322 -0.000009 -10.241500 0.004038 -90.020600 -22.291500 -0.000108 -0.000004 21.603200 5.675010 -18.245600 -2.192480 -6.469440 -0.000000 -174.934000 -6.591380 3.582130 39.081100 -0.000007 -0.000012 -0.027968 0.128191 12.307400 40.985400 -0.000006 -0.000013 18.540500 12.043500 -66.594900 11.754300 -0.000000 0.000003 -0.032121 -0.227038 -25.883400 -2.192510 6.469440 -0.000001 -174.800000 10.650900 147.244000 -39.081100 -0.002282 -0.040193 0.027464 -0.018077 53.274600 -40.985400 0.000008 0.000006 8.082920 -12.120600 -58.337100 -11.754300 -0.000006 -0.000006 -0.020535 -0.170232 -23.529100
0.000000 0.000000 0.000000 0.000000 0.000000 -0.000000 118.649000 92.408000 159.155000 -77.141500 7.449380 167.443000 15.735700 0.000005 -0.000001 40.314300 81.975600 -35.463600 8.984550 -0.406207 -0.000000 3.230480 -12.417300 10.073200 16.377300 -0.000001 -0.000001 -0.572260 1.058680 2.081180 6.456720 -0.000001 -0.000000 0.785826 9.457490 -0.431394 12.994200 -0.242716 4.980390 -88.193800 -6.583650 -74.621200 5.348090 -0.000007 -0.000001 -53.869600 38.058100 -42.327000 24.328600 0.000019 0.000005 -3.595370 2.232860 -121.801000 22.291600 -0.000001 0.000005 6.824100 5.435580 -4.131950 12.994500 -0.242716 -4.980390 91.545700 -4.343770 -70.389900 -5.348130 -0.000001 -0.000004 -72.253700 40.576000 40.831100 -24.328900 0.000322 -0.000009 -7.375130 -0.041025 -89.680300 -22.291500 -0.000108 -0.000004 20.104700 5.670570 -17.467200 -2.192480 -6.469440 -0.000000 -172.513000 -9.789630 5.562770 39.081100 -0.000007 -0.000012 -0.023376 0.126313 10.484300 40.985400 -0.000006 -0.000013 16.891700 19.348600 -63.085700 11.754300 -0.000000 0.000003 -0.062392 -0.339485 -30.605800 -2.192510 6.469440 -0.000001 -174.779000 10.528800 146.481000 -39.081100 -0.002282 -0.040193 0.031123 -0.030038 42.837500 -40.985400 0.000008 0.000006 5.952200 -8.310850 -60.823700 -11.754300 -0.000006 -0.000006 -0.022175 -0.179051 -23.892800
